<?xml version="1.0" encoding="utf-8"?>
<!-- Generator: Adobe Illustrator 18.0.0, SVG Export Plug-In . SVG Version: 6.00 Build 0)  -->
<!DOCTYPE svg PUBLIC "-//W3C//DTD SVG 1.1//EN" "http://www.w3.org/Graphics/SVG/1.1/DTD/svg11.dtd">
<svg version="1.1" id="Layer_1" xmlns="http://www.w3.org/2000/svg" xmlns:xlink="http://www.w3.org/1999/xlink" x="0px" y="0px"
	 viewBox="0 0 37 48" enable-background="new 0 0 37 48" xml:space="preserve">
<g>
	<polygon fill="#B7B7B8" points="35,6 37,0 0,0 2,6 	"/>
	<g>
		<path fill="#B7B7B8" d="M16,37.4c-0.1-0.1-0.2-0.1-0.3-0.1c-0.1,0-0.2-0.1-0.4-0.1h-0.7v2.7H15v-1.1h0.4c0.1,0,0.2,0,0.3,0
			c0.1,0,0.2,0,0.3-0.1c0.1-0.1,0.2-0.1,0.2-0.2c0-0.1,0.1-0.2,0.1-0.4c0-0.1,0-0.3-0.1-0.4C16.1,37.6,16.1,37.5,16,37.4z
			 M15.8,38.3c0,0.1-0.1,0.1-0.1,0.1c0,0-0.1,0.1-0.2,0.1c-0.1,0-0.1,0-0.2,0H15v-0.8h0.3c0.1,0,0.1,0,0.2,0c0.1,0,0.1,0,0.2,0.1
			c0.1,0,0.1,0.1,0.1,0.1c0,0.1,0.1,0.1,0.1,0.2C15.9,38.1,15.9,38.2,15.8,38.3z"/>
		<polygon fill="#B7B7B8" points="19.2,38.4 17.9,38.4 17.9,37.2 17.7,37.2 17.7,39.9 17.9,39.9 17.9,38.6 19.2,38.6 19.2,39.9 
			19.6,39.9 19.6,37.2 19.2,37.2 		"/>
		<path fill="#B7B7B8" d="M16.4,30.2L16.4,30.2l-0.1,1.7h0.1c0.6,0,1-0.2,1-0.9C17.4,30.3,16.9,30.2,16.4,30.2z"/>
		<path fill="#B7B7B8" d="M22,37.2l-1.1,2.7h0.4l0.3-0.7h1.3l0.3,0.7h0.4l-1.1-2.7H22z M21.7,38.9l0.5-1.3l0.5,1.3H21.7z"/>
		<polygon fill="#B7B7B8" points="27.1,37.7 27.8,37.7 27.8,39.9 28.2,39.9 28.2,37.7 29,37.7 29,37.2 27.1,37.2 		"/>
		<path fill="#B7B7B8" d="M13,38.6c-0.1-0.1-0.1-0.1-0.2-0.1c-0.1,0-0.2-0.1-0.3-0.1c-0.2-0.1-0.3-0.1-0.3-0.2
			c-0.1-0.1-0.1-0.1-0.1-0.2c0-0.1,0-0.1,0-0.2c0,0,0.1-0.1,0.1-0.1c0,0,0.1,0,0.1-0.1c0.1,0,0.1,0,0.2,0c0.1,0,0.2,0,0.2,0
			c0.1,0,0.1,0,0.3,0.1l0.1-0.3c-0.1,0-0.2-0.1-0.3-0.1c-0.1,0-0.2,0-0.3,0c-0.2,0-0.4,0.1-0.6,0.2c-0.2,0.1-0.2,0.3-0.2,0.5
			c0,0.1,0,0.2,0.1,0.3c0,0.1,0.1,0.1,0.1,0.2c0.1,0.1,0.1,0.1,0.2,0.1c0.1,0,0.1,0.1,0.2,0.1c0.2,0.1,0.3,0.1,0.3,0.2
			c0,0,0.1,0.1,0.1,0.1c0,0,0,0.1,0,0.2c0,0.1,0,0.1,0,0.2c0,0.1-0.1,0.1-0.1,0.1c-0.1,0-0.1,0.1-0.2,0.1c-0.1,0-0.1,0-0.2,0
			c-0.1,0-0.2,0-0.3,0c-0.1,0-0.2-0.1-0.3-0.1l0,0.3c0.1,0,0.2,0.1,0.3,0.1c0.1,0,0.2,0,0.2,0c0.1,0,0.3,0,0.4,0
			c0.1,0,0.2-0.1,0.3-0.1c0.1-0.1,0.2-0.1,0.2-0.2c0-0.1,0.1-0.2,0.1-0.3c0-0.1,0-0.2-0.1-0.3C13.1,38.8,13.1,38.7,13,38.6z"/>
		<polygon fill="#B7B7B8" points="25.1,37.2 24.8,37.2 24.8,39.9 26.2,39.9 26.2,39.5 25.1,39.5 		"/>
		<path fill="#B7B7B8" d="M9.1,37.2L8,39.9h0.4l0.3-0.7h1.3l0.3,0.7h0.4l-1.1-2.7H9.1z M8.8,38.9l0.5-1.3l0.5,1.3H8.8z"/>
		<path fill="#B7B7B8" d="M29,33.9c-0.3,0-0.5,0.2-0.5,0.5c0,0.3,0.2,0.5,0.5,0.5c0.3,0,0.5-0.2,0.5-0.5
			C29.5,34.1,29.3,33.9,29,33.9z M29.3,34.7h-0.2L29,34.4h-0.1v0.3h-0.1V34h0.3c0.1,0,0.2,0.1,0.2,0.2c0,0.1-0.1,0.2-0.2,0.2
			L29.3,34.7z"/>
		<path fill="#B7B7B8" d="M35,42V7H2v35l-2,6h37L35,42z M31.3,40.9H5.7V11.1h25.6V40.9z"/>
		<path fill="#B7B7B8" d="M29,34.2h-0.1v0.2h0.2c0.1,0,0.1,0,0.1-0.1C29.2,34.2,29.1,34.2,29,34.2z"/>
		<path fill="#B7B7B8" d="M30.2,12.4H6.8v23.9h23.3V12.4z M19.5,17.6v-4.1h9.8l-4.5,10.7h3.5v4.1h-9.8L23,17.6H19.5z M8,13.5h9.5
			v4.1h-1.9H14h-1.8V19h2.4l1.6,3.8h-4v1.4h4.6l1.7,4.1H8V13.5z M9.8,35.1C9,35.1,8.4,34.7,8,34l0.7-0.7c0.1,0.4,0.5,0.8,1,0.8
			c0.4,0,0.7-0.4,0.7-0.8c0-0.6-0.5-0.7-1-0.9c-0.7-0.3-1.3-0.7-1.3-1.5c0-0.9,0.7-1.7,1.6-1.7c0.5,0,1.2,0.2,1.5,0.6l-0.5,0.8
			c-0.2-0.3-0.5-0.5-0.8-0.5c-0.4,0-0.7,0.3-0.7,0.6c0,0.9,2.2,0.6,2.2,2.4C11.6,34.3,10.9,35.1,9.8,35.1z M14.8,30.4h-1.1V35h-1.1
			v-4.6h-1.1v-1h3.4V30.4z M17.6,35l-1.3-2.2V35h-1.1v-5.6h1.5c1.1,0,1.9,0.5,1.9,1.7c0,0.7-0.4,1.4-1.1,1.6l1.6,2.4H17.6z M22,30.4
			h-1.8v1.1h1.7v1h-1.7V34H22v1h-2.9v-5.6H22V30.4z M25.2,30.4h-1.8v1.1h1.8v1h-1.8V34h1.8v1h-2.8v-5.6h2.8V30.4z M27.9,35h-1.1
			v-4.6h-1.1v-1H29v1h-1.1V35z M29,35c-0.3,0-0.6-0.3-0.6-0.6c0-0.3,0.3-0.6,0.6-0.6c0.3,0,0.6,0.3,0.6,0.6C29.6,34.7,29.3,35,29,35
			z"/>
	</g>
	<g>
		<path fill="#B7B7B8" d="M35,42V7H2v35l-2,6h37L35,42z M31.3,40.9H5.7V11.1h25.6V40.9z"/>
	</g>
</g>
</svg>
